<svg width="181" height="33" viewBox="0 0 181 33" fill="none" xmlns="http://www.w3.org/2000/svg">
<g clip-path="url(#clip0_438_4047)">
<path d="M23.0633 6.39892L6.63852 16.0126L6.63037 10.9601L18.7049 3.93408L23.0633 6.39892Z" fill="#2C3F66"/>
<path d="M1.19775 21.7768L17.6225 12.1621L17.6307 17.2156L5.55511 24.2416L1.19775 21.7768Z" fill="#2C3F66"/>
<path d="M22.8744 21.6523L11.9321 28.1281L7.65527 25.5786L18.6273 19.2029L22.8744 21.6523Z" fill="#4B6285"/>
<path d="M0.949707 6.43563L12.0094 0L16.2861 2.54948L5.41009 9.0037L0.949707 6.43563Z" fill="#4B6285"/>
<path d="M0 8.28979L4.20538 10.7443V17.4267L0 19.8089V8.28979Z" fill="#4B6285"/>
<path d="M24.0599 19.9581L19.8545 17.5036V10.8212L24.0599 8.43994V19.9581Z" fill="#4B6285"/>
<path d="M37.1713 19.5103C37.5089 21.94 39.7794 23.4264 42.9669 23.4264C46.1543 23.4264 48.183 21.84 48.183 19.6094C48.183 17.6761 46.9274 16.486 43.691 15.7924L41.083 15.2474C36.3013 14.1564 34.0798 11.8763 34.0798 8.30701C34.0798 4.09365 37.7017 1.16846 42.822 1.16846C47.9423 1.16846 51.4194 4.1432 51.5153 8.45565H47.8934C47.6517 5.97739 45.6718 4.44047 42.7741 4.44047C39.8764 4.44047 37.8965 5.82875 37.8965 8.10883C37.8965 9.89347 39.1521 11.0836 42.2437 11.7772L44.8997 12.3222C49.9232 13.4132 51.9998 15.4951 51.9998 19.0644C51.9998 23.7247 48.4258 26.6499 42.823 26.6499C37.2203 26.6499 33.7431 23.8733 33.5493 19.4618H37.1713V19.5114V19.5103Z" fill="#2C3F66"/>
<path d="M54.6006 1.56348H58.1745V11.2805H58.2715C59.2374 9.19851 61.1693 7.95887 63.8253 7.95887C67.689 7.95887 69.9595 10.5868 69.9595 14.6515V26.2522H66.3375V15.3451C66.3375 12.6677 65.0329 11.0813 62.5217 11.0813C59.8657 11.0813 58.2235 12.965 58.2235 15.791V26.2016H54.6016V1.56348H54.6006Z" fill="#2C3F66"/>
<path d="M73.2864 32.8955V29.9208C73.576 29.9703 74.1554 29.9703 74.445 29.9703C76.1352 29.9703 77.0052 29.2272 77.5846 27.3919C77.5846 27.3425 77.9221 26.3009 77.9221 26.3009L71.5952 8.25537H75.5068L79.9499 22.9298H79.9978L84.4409 8.25537H88.2566L81.6879 27.1927C80.1907 31.5558 78.4515 32.943 74.8296 32.943C74.4431 32.9926 73.525 32.9926 73.2843 32.8934L73.2864 32.8955Z" fill="#2C3F66"/>
<path d="M92.0848 11.3297H89.6694V8.45404H92.0848V6.6694C92.0848 3.19922 93.6791 1.51367 97.253 1.51367C97.9772 1.51367 98.7983 1.61276 99.2817 1.66231V4.38933C98.9442 4.38933 98.4607 4.33978 97.9772 4.33978C96.4319 4.33978 95.6588 5.13249 95.6588 6.71895V8.4045H99.2329V11.3297H95.7068V26.4005H92.0848V11.3297Z" fill="#2C3F66"/>
<path d="M106.866 4.14209V8.40602H110.199V11.3312H106.866V21.2463C106.866 22.7832 107.542 23.5265 108.99 23.5265C109.377 23.5265 109.956 23.4769 110.198 23.4273V26.3525C109.811 26.4516 108.99 26.5012 108.217 26.5012C104.643 26.5012 103.291 25.1129 103.291 21.6427V11.3302H100.73V8.40499H103.291V4.14209H106.866Z" fill="#2C3F66"/>
<path d="M128.311 26.5991H113.676V1.86084H116.67V23.8225H128.263V26.5991H128.311Z" fill="#2C3F66"/>
<path d="M130.484 21.691C130.484 18.6171 132.754 16.7334 136.763 16.4858L141.736 16.1885V14.7011C141.736 12.5201 140.336 11.2309 137.921 11.2309C135.699 11.2309 134.299 12.3219 133.911 14.057H131.111C131.303 10.9831 133.863 8.604 137.97 8.604C142.076 8.604 144.634 10.8841 144.634 14.4038V26.698H141.882V23.6243H141.833C140.819 25.6566 138.597 26.9954 136.278 26.9954C132.801 27.0449 130.484 24.9135 130.484 21.691ZM141.737 19.9559V18.5181L137.101 18.8154C134.782 18.964 133.43 20.055 133.43 21.691C133.43 23.327 134.83 24.5171 136.906 24.5171C139.659 24.5171 141.736 22.5343 141.736 19.9559H141.737Z" fill="#2C3F66"/>
<path d="M151.349 23.7237H151.251V26.7481H148.499V2.00977H151.397V11.8754H151.445C152.508 9.84297 154.536 8.60332 157 8.60332C161.395 8.60332 164.341 12.2222 164.341 17.8249C164.341 23.4275 161.395 27.0463 156.952 27.0463C154.439 27.0463 152.46 25.7561 151.349 23.7237ZM151.397 17.8238C151.397 21.7894 153.474 24.4173 156.42 24.4173C159.51 24.4173 161.394 21.8895 161.394 17.8238C161.394 13.7581 159.51 11.2303 156.42 11.2303C153.329 11.2303 151.397 13.8581 151.397 17.8238Z" fill="#2C3F66"/>
<path d="M173.373 8.45465C177.188 8.45465 179.699 10.7348 179.845 13.9077H177.091C176.899 12.0239 175.546 10.8834 173.421 10.8834C171.295 10.8834 169.895 11.9744 169.895 13.5113C169.895 14.751 170.764 15.5932 172.696 16.0392L175.449 16.7327C178.975 17.6256 180.23 19.0129 180.23 21.5417C180.23 24.665 177.38 26.8461 173.517 26.8461C169.46 26.8461 166.9 24.7146 166.562 21.393H169.46C169.797 23.4254 171.15 24.4173 173.517 24.4173C175.883 24.4173 177.332 23.3758 177.332 21.7894C177.332 20.5002 176.656 19.757 174.675 19.2605L171.922 18.567C168.638 17.7731 167.044 16.1878 167.044 13.6094C166.995 10.6346 169.604 8.45361 173.372 8.45361L173.373 8.45465Z" fill="#2C3F66"/>
</g>
<defs>
<clipPath id="clip0_438_4047">
<rect width="180.231" height="33" fill="white"/>
</clipPath>
</defs>
</svg>
